<?xml version="1.0" encoding="utf-8"?>
<!-- Generator: Adobe Illustrator 24.0.1, SVG Export Plug-In . SVG Version: 6.00 Build 0)  -->
<svg version="1.1" id="Layer_1" xmlns="http://www.w3.org/2000/svg" xmlns:xlink="http://www.w3.org/1999/xlink" x="0px" y="0px"
	 viewBox="0 0 718.7 98.9" style="enable-background:new 0 0 718.7 98.9;" xml:space="preserve">
<style type="text/css">
	.st0{fill:#FFFFFF;}
</style>
<g>
	<path class="st0" d="M81.6,47.1h1.9v16.2L83.1,85c0,3.9,1.6,7.2,4.7,9.8c3.2,2.6,7.5,3.9,13,3.9c1.5,0,3-0.1,4.5-0.4
		c1.5-0.2,3.1-0.7,5-1.5c1.6-1.5,3.4-3.2,5.5-5.2l2.6-2.4l-1.1-2.7c-1.5,0.3-2.8,0.5-3.7,0.6c-1,0.1-2.3,0.1-3.9,0.1
		c-2.7,0-4.7-0.6-6.1-1.7c-1.4-1.2-2.2-2.8-2.4-4.8c-0.1-1.2-0.2-5.2-0.2-12V46.9h6.9l7,0.1c0.5,0,1,0,1.6-0.1l1.2-8.9
		c-3.2,0.4-8,0.7-14.3,0.7h-2.4l0.6-11.5l0.5-7.6l0.7-6.8l-1.9-1.3c-5.8,2.5-8.8,3.8-9,3.9c-1.4,0.5-4.4,1.4-9,2.8
		c0.4,4.6,0.6,8.5,0.6,11.7v8.8c-0.9,0.7-1.9,1.3-3,1.9l-6.4,3.7v3C76.5,47.1,79,47.1,81.6,47.1"/>
	<path class="st0" d="M65.9,17.7c0.3-2.7,0.8-5.5,1.5-8.4l-0.6-1.6C63.3,6.2,59.2,5,54.5,4.2c-4.7-0.8-9.6-1.2-14.6-1.2
		c-4.8,0-9.6,0.5-14.2,1.5C21,5.4,16.9,7,13.3,9.3c-3.7,2.3-6.6,5.5-8.8,9.6c-2.2,4.1-3.3,8.7-3.3,13.6c0,3.5,0.6,6.8,1.9,9.8
		c1.2,3,3.1,5.6,5.6,7.8c2.5,2.1,5.8,3.8,9.9,4.9c2.7,0.7,8.4,2,17,3.6c6,1.3,10.2,2.5,12.5,3.7c2.4,1.2,4.1,2.8,5.2,4.7
		c1.1,2,1.7,4.3,1.7,7.1c0,3.3-0.8,6.2-2.4,8.8c-1.6,2.6-4.2,4.6-7.7,6.1c-3.5,1.5-7.6,2.2-12.1,2.2c-5.2,0-10-1-14.3-3.1
		c-4.4-2.1-7.5-4.5-9.3-7.2c-0.6-4.7-0.9-8.6-0.8-11.8h-6C2.2,79.4,1.5,87,0,92c5.5,2.5,10.5,4.2,15,5.2c4.6,1,9.8,1.5,15.6,1.5
		c8,0,14.8-1.1,20.5-3.2c3.6-1.3,7-3.3,10.4-5.9c3.4-2.6,6-5.6,7.9-8.8c2.5-4.2,3.8-9.2,3.8-14.8c0-3.2-0.4-6.1-1.4-8.6
		c-0.9-2.6-2.1-4.7-3.4-6.4c-1.4-1.7-3.3-3.2-5.7-4.5c-2.4-1.3-5.5-2.4-9.3-3.3c-1.5-0.3-4.7-0.9-9.6-1.6c-4.9-0.8-8.7-1.4-11.5-2
		c-3.6-0.9-6.3-1.8-8.2-2.9c-1.9-1.1-3.3-2.5-4.3-4.3c-1-1.8-1.5-4.1-1.6-7c0-4,1.8-7.6,5.3-10.6c3.5-3,8.5-4.5,15-4.5
		c4.5,0,8.6,0.7,12.2,2.2c3.6,1.5,6.2,3.2,7.6,5.1c0.4,2.1,0.6,5.7,0.7,10.8h6C65.3,24,65.6,20.4,65.9,17.7"/>
	<path class="st0" d="M129.1,45.2c0.8,0.3,1.4,0.8,1.7,1.4c0.4,0.6,0.5,2.2,0.5,4.7l0.1,13.8c0,3.5,0,6.4-0.1,8.7
		c-0.2,4.2-0.3,6.6-0.3,7.3c0,5.4,1.8,9.7,5.5,12.9c3.7,3.2,8.7,4.9,15.1,4.9c3.3,0,6.6-0.5,9.9-1.6l8.1-7c1.4-1.1,3-2.4,4.9-3.8
		c0,2.5,0,4.2-0.1,5.1l-0.4,5.1l0.5,0.5l13.5-0.3l14.7,0.3v-5.3c-4.9-0.2-7.9-0.5-8.8-1c-0.5-0.3-0.9-0.9-1.1-1.6
		c-0.4-1.9-0.6-6.8-0.6-14.8V60.9c0-1,0.2-5.8,0.6-14.4l0.8-12.1l-1.4-0.7c-6.4,1.9-10.9,3.1-13.5,3.7c-2.7,0.5-7.7,1.2-15,2.1v5
		c5.1,0.3,8,0.5,8.7,0.7c0.7,0.2,1.2,0.5,1.4,0.9c0.4,0.6,0.6,2.4,0.6,5.4l0.1,9.3V72c0,3.6-0.3,5.9-0.9,7.1
		c-0.9,1.7-2.5,3.4-4.9,5.1c-2.3,1.7-5.2,2.5-8.6,2.5c-3,0-5.4-0.7-7.2-2.1c-1.8-1.4-2.9-3.5-3.4-6.2c-0.3-2.1-0.5-6.3-0.5-12.5
		v-7.4c0-7.4,0.4-15.4,1.1-24l-1-0.7c-6.5,2-11.8,3.5-15.9,4.3c-4.1,0.8-8.3,1.3-12.4,1.5v5C125.6,44.7,128.3,44.9,129.1,45.2"/>
	<path class="st0" d="M250.6,62.1c0,8.7-0.2,13.9-0.7,15.6c-0.5,1.7-2.1,3.5-4.7,5.3c-2.6,1.8-5.7,2.8-9.2,2.8
		c-4.6,0-8.3-1.6-11.1-4.8c-3.7-4.3-5.5-10.5-5.5-18.5c0-4.3,0.5-8.1,1.5-11.4s2.6-5.7,4.6-7.1c2.1-1.5,4.7-2.2,8-2.2
		c3.7,0,7.2,0.8,10.3,2.5c1.7,0.9,3.8,2.8,6.4,5.6L250.6,62.1z M270.7,91.2c-0.8-0.3-1.3-0.7-1.6-1.2c-0.3-0.5-0.6-2-0.7-4.5
		c-0.2-3.5-0.4-6.7-0.4-9.7v-6.1c0-20.6,0.1-36.6,0.2-48c0-2.1,0.3-9,0.9-20.7l-1.9-1c-8.6,2.9-18,4.8-28.1,5.8v4.9
		c5.2,0.1,8.1,0.3,8.8,0.4c0.6,0.1,1.1,0.4,1.4,0.9c0.4,0.6,0.7,2,0.8,4.3c0.2,4.7,0.4,8.7,0.4,12.1c0,2.8-0.1,5.5-0.2,8.1
		c-3.7-1.3-6.2-2.1-7.7-2.4c-1.5-0.3-3.4-0.5-5.7-0.5c-3.7,0-6.6,0.4-8.9,1.2c-2.3,0.8-6.1,2.9-11.4,6.3c-5.3,3.4-8.5,5.7-9.6,7
		c-1.5,1.7-2.8,4-4,7.1c-1.5,4-2.3,8.6-2.3,13.7c0,9.2,2.6,16.5,7.8,21.8c5.2,5.3,11.7,8,19.6,8c3,0,5.4-0.3,7.2-1
		c1.5-0.9,3-2,4.5-3.3c3.9-3.2,7.5-6,10.7-8.5l-0.1,5.4l-0.4,5.2l0.6,0.5l12.9-0.2l15,0.2V92C274,91.7,271.5,91.4,270.7,91.2"/>
	<path class="st0" d="M308.3,59.6c-6.6,0-11.2-0.2-14-0.6c-0.2-6.7,0.9-11.5,3.4-14.4c2.4-2.9,5.5-4.3,9.2-4.3
		c3.6,0,6.6,1.4,8.8,4.1c2.2,2.8,3.3,7.7,3.1,14.6C316,59.4,312.5,59.6,308.3,59.6 M334,84.4c-3.7,1.7-6.7,2.8-9,3.4
		c-2.3,0.5-4.8,0.8-7.5,0.8c-6.3,0-11.5-2-15.8-6c-4.3-4-6.6-9.5-7-16.4h4.7c0.8,0,1.4,0,2.1-0.1c0.6,0,3.8-0.1,9.7-0.1
		c5.8,0,10.5-0.2,14.1-0.5c1.1,0,3.3-0.4,6.6-0.9c2.4-0.4,4.2-0.8,5.4-1.2c0.1-1.1,0.1-2.3,0.1-3.5c0-5.4-0.8-10-2.5-13.9
		c-1.7-3.8-4.6-6.9-8.7-9.4c-4.1-2.5-9.3-3.7-15.7-3.7c-4.5,0-8.4,0.7-11.8,2c-1.8,0.7-4.7,2.3-8.7,4.7c-4,2.4-6.5,4.1-7.4,4.9
		c-1.5,1.4-2.9,3.7-4,6.8c-1.7,4.5-2.5,9.6-2.5,15.4c0,3.9,0.4,7.6,1.3,10.9c0.9,3.3,2.2,6.3,4.2,8.8c1.9,2.5,4.2,4.7,6.7,6.4
		s5.6,3.1,9.2,4.1s7.7,1.5,12.4,1.5c3.9,0,7.5-0.4,10.5-1.1c4.1-1.1,8.1-2.7,12-4.9l3.1-6.4L334,84.4z"/>
	<path class="st0" d="M418.1,91.9c-2.2-0.1-3.6-0.4-4.3-1c-0.6-0.5-1.1-1.6-1.3-3.4c-0.2-1.8-0.3-6.3-0.4-13.8l-0.1-6.8
		c0-0.7,0-1.4,0.1-1.9c0.1-1.4,0.1-4.5,0.1-9.6c0-4.4-0.4-7.7-1.1-9.8c-0.7-2.1-1.9-4.1-3.7-6c-1.8-1.9-3.9-3.4-6.4-4.4
		c-2.5-1.1-6.4-1.6-11.4-1.6c-1.9,0-3.4,0.1-4.5,0.3c-1.1,0.2-2.4,0.6-4,1.1l-13,9.6V34.1l-1.9-0.8c-3.4,1.4-6.5,2.5-9.2,3.2
		c-2.7,0.7-8.4,1.7-17,3v5.1c4.5,0.1,7.2,0.3,8.1,0.7c0.6,0.2,1,0.4,1.3,0.8c0.3,0.4,0.5,2,0.6,4.7c0.2,5.5,0.4,10.3,0.4,14.1v8.6
		c0,2.8,0,4.7-0.1,6l-0.3,5.8c0,2.3-0.3,3.9-0.8,4.7c-0.3,0.5-0.8,0.9-1.5,1.1c-1.4,0.5-4,0.7-7.7,0.7v5.1
		c4.8-0.2,11.5-0.3,20.2-0.3c7.5,0,13.8,0.1,19,0.3v-5.1c-3.4-0.3-5.4-0.4-5.9-0.5c-1.7-0.3-2.8-0.6-3.3-1c-0.4-0.2-0.7-0.6-0.9-1
		c-0.3-0.7-0.5-2-0.6-4.1c-0.2-4.6-0.4-8.5-0.4-11.7v-11c0-6.1,0.1-9.6,0.4-10.5c0.6-1.5,1.9-3,4.1-4.4c2.2-1.5,4.9-2.2,8.3-2.2
		c3.3,0,6,0.7,8,2.2c2,1.5,3.3,3.4,4,5.8c0.6,2.4,1,7.4,1,15.1v5.2l-0.4,10.8c-0.5,6.7-0.8,10.4-0.9,11.4l1.3,1.2
		c3.5-0.3,7.6-0.5,12.3-0.5c4.1,0,9.4,0.2,15.9,0.5v-4.9C420.3,92,418.9,91.9,418.1,91.9"/>
	<path class="st0" d="M426.2,46.9h1.9v16.2l-0.4,21.7c0,3.9,1.6,7.2,4.7,9.8c3.2,2.6,7.5,3.9,13,3.9c1.5,0,3-0.1,4.5-0.4
		c1.5-0.2,3.1-0.7,5-1.5c1.6-1.5,3.4-3.2,5.5-5.2l2.6-2.4l-1.1-2.7c-1.5,0.3-2.8,0.5-3.7,0.6c-1,0.1-2.3,0.1-3.9,0.1
		c-2.7,0-4.7-0.6-6.1-1.7c-1.4-1.2-2.2-2.8-2.4-4.8c-0.1-1.2-0.2-5.2-0.2-12V46.7h6.9l7,0.1c0.5,0,1,0,1.6-0.1l1.2-8.9
		c-3.2,0.4-8,0.7-14.3,0.7h-2.4l0.6-11.5l0.5-7.6l0.7-6.8l-1.9-1.3c-5.8,2.5-8.8,3.8-9,3.9c-1.4,0.5-4.4,1.4-9,2.8
		c0.4,4.6,0.6,8.5,0.6,11.7v8.8c-1,0.7-1.9,1.3-3,1.9l-6.4,3.7v3C421.1,47,423.6,46.9,426.2,46.9"/>
	<path class="st0" d="M510.8,96.5c3.1,0,8.6,0.1,16.4,0.3c10.3,0.2,15.9,0.3,16.7,0.3c6.1,0,10.6-0.1,13.5-0.3
		c1.4-0.1,2.8-0.4,4.1-0.7c0-0.8,0.3-3.3,0.6-7.5l1.8-13.3c0-0.2,0.1-0.9,0.2-2.2h-5.9c-0.9,4.3-1.8,8.1-2.8,11.4
		c-0.4,1.3-0.8,2.1-1.2,2.4c-0.4,0.3-1.5,0.6-3.5,0.9c-5.4,0.8-11.7,1.2-18.9,1.2c-2.4,0-6.8-0.2-13.4-0.5c0-1.3-0.1-5-0.1-11.2
		c0-6.1-0.1-12.3-0.1-18.6c0-11.9-0.1-18.2-0.1-19c0-7.3,0.1-13.4,0.3-18.2c0.2-4.8,0.4-7.5,0.7-8.1c0.2-0.6,0.6-1,1.1-1.3
		c1.2-0.6,4.5-1,9.8-1.2V5.2c-7.7,0.3-15.9,0.5-24.6,0.5c-7.7,0-14.6-0.2-20.7-0.5V11c6.2,0.2,9.9,0.7,11,1.3
		c0.5,0.3,0.9,0.7,1.1,1.2c0.4,1.2,0.7,5.9,0.9,14.1c0.1,3.2,0.1,11.8,0.1,25.6c0,9.4-0.1,17.5-0.3,24.2c-0.2,6.7-0.4,10.6-0.6,11.7
		c0,0.3-0.2,0.5-0.4,0.7c-0.3,0.4-0.9,0.8-1.9,1.3c-2.2,1.2-4,2.1-5.2,2.6v3.4C499.1,96.7,506.2,96.5,510.8,96.5"/>
	<path class="st0" d="M583,96.8c7.9,0,15.3,0.1,22,0.3v-5.1c-4.9-0.2-8-0.5-9.3-1.1c-0.6-0.3-1-0.8-1.1-1.6
		c-0.4-1.4-0.6-5.9-0.6-13.5V53.4c0-6,0.3-12.4,0.9-19.2l-1.7-0.9c-4.3,1.6-8.3,2.8-12,3.6c-3.7,0.8-9.1,1.5-16.2,2.2v5
		c5.5,0,8.7,0.4,9.7,0.9c0.4,0.3,0.7,0.8,0.9,1.7c0.4,1.9,0.6,9.7,0.6,23.4c0,10-0.2,16.2-0.7,18.6c-0.2,1.1-0.7,1.9-1.4,2.3
		c-0.8,0.4-3.8,0.8-9.1,1.2v4.9C570.2,96.9,576.2,96.8,583,96.8 M576.8,4.9c-2.1,2-3.2,4.3-3.2,7.1c0,2.8,1.1,5.2,3.2,7.2
		s4.7,3,7.7,3c3,0,5.6-1,7.7-3c2.1-2,3.2-4.4,3.2-7.2c0-2.8-1.1-5.1-3.2-7.1c-2.1-2-4.7-3-7.7-3C581.5,2,578.9,2.9,576.8,4.9"/>
	<path class="st0" d="M626.6,96.9l24.3,0.3v-5c-6.2-0.4-9.4-0.7-9.7-0.7c-1.1-0.2-2-0.5-2.5-0.9c-0.5-0.4-0.9-0.9-1.1-1.5
		c-0.3-0.9-0.5-3.4-0.6-7.7c-0.1-4.3-0.2-8.7-0.2-13.4V47c4.1-0.1,6.6-0.2,7.5-0.2c0.3,0,1.5,0,3.6,0.1l7.2,0.1l1.1-5.8
		c0.1-0.8,0.3-1.6,0.6-2.3l-0.9-0.7c-3,0.2-6.5,0.3-10.6,0.4l-8.4,0.1v-9.1c0-7,0.3-11.4,0.9-13.1c0.4-1.2,1.1-2.1,2.3-2.8
		c1.6-1,3.8-1.4,6.6-1.4c1.9,0,3.5,0.2,4.7,0.7c1.2,0.5,2.6,1.3,4,2.5l2.9-1.2c-0.1-4,0.2-8.4,1-13.1C656.4,0.4,654,0,651.6,0
		c-2.3,0-4.3,0.3-6.1,1c-1.8,0.6-3.4,1.5-4.8,2.6l-8.6,7.1c-5.4,4.3-8.8,7.4-10.4,9.3c-1,1.2-1.6,2.4-2.1,3.7s-0.7,3.4-1,6.5
		c-0.2,3-0.3,5.6-0.3,7.7c0,0.7-0.3,1.2-0.9,1.6c-0.2,0.2-3.5,1.8-9.8,4.8v3.2l9.7-0.4l2,0.1v19.7c-0.1,12-0.3,19.1-0.6,21.4
		c-0.1,1.3-0.6,2.1-1.4,2.6c-1,0.6-4.4,1.1-10,1.4v5C617.2,97,623.6,96.9,626.6,96.9"/>
	<path class="st0" d="M689.5,59.6c-6.6,0-11.2-0.2-14-0.6c-0.2-6.7,0.9-11.5,3.4-14.4c2.4-2.9,5.5-4.3,9.2-4.3
		c3.6,0,6.6,1.4,8.8,4.1c2.2,2.8,3.3,7.7,3.1,14.6C697.2,59.4,693.7,59.6,689.5,59.6 M715.2,84.4c-3.7,1.7-6.7,2.8-9,3.4
		s-4.8,0.8-7.5,0.8c-6.3,0-11.5-2-15.8-6c-4.3-4-6.6-9.5-7-16.4h4.7c0.8,0,1.5,0,2.1-0.1c0.6,0,3.8-0.1,9.7-0.1
		c5.8,0,10.5-0.2,14.1-0.5c1.1,0,3.3-0.4,6.6-0.9c2.4-0.4,4.2-0.8,5.4-1.2c0.1-1.1,0.1-2.3,0.1-3.5c0-5.4-0.8-10-2.5-13.9
		c-1.7-3.8-4.6-6.9-8.7-9.4c-4.1-2.5-9.3-3.7-15.7-3.7c-4.5,0-8.4,0.7-11.8,2c-1.8,0.7-4.7,2.3-8.7,4.7c-4,2.4-6.5,4.1-7.4,4.9
		c-1.5,1.4-2.9,3.7-4,6.8c-1.7,4.5-2.5,9.6-2.5,15.4c0,3.9,0.4,7.6,1.3,10.9c0.9,3.3,2.2,6.3,4.2,8.8c1.9,2.5,4.2,4.7,6.7,6.4
		c2.5,1.8,5.6,3.1,9.2,4.1c3.6,1,7.7,1.5,12.4,1.5c3.9,0,7.5-0.4,10.5-1.1c4.1-1.1,8.1-2.7,12-4.9l3.1-6.4L715.2,84.4z"/>
</g>
</svg>
